<svg width="84" height="112" viewBox="0 0 84 112" fill="none" xmlns="http://www.w3.org/2000/svg">
<path d="M80.0641 6.55366C81.7136 6.70889 83.1767 5.49749 83.3319 3.84792C83.4872 2.19835 82.2758 0.735278 80.6262 0.580055L80.3451 3.56686L80.0641 6.55366ZM30.1591 109.252C31.8096 109.107 33.0302 107.652 32.8853 106.001L30.5244 79.1047C30.3795 77.4542 28.9241 76.2337 27.2736 76.3785C25.623 76.5234 24.4025 77.9789 24.5474 79.6294L26.6459 103.537L2.73787 105.636C1.08736 105.781 -0.133197 107.236 0.0116798 108.887C0.156555 110.537 1.612 111.758 3.26251 111.613L30.1591 109.252ZM80.3451 3.56686L80.6262 0.580055C39.1495 -3.32293 13.2469 12.8809 4.29236 36.2273C-4.58304 59.3673 3.74271 88.2458 27.9691 108.562L29.8968 106.264L31.8245 103.965C9.15071 84.9504 2.11396 58.6613 9.89443 38.376C17.5957 18.2972 40.3674 2.81818 80.0641 6.55366L80.3451 3.56686Z" fill="#4A4A4A"/>
</svg>
