<svg width="84" height="112" viewBox="0 0 84 112" fill="none" xmlns="http://www.w3.org/2000/svg">
<path d="M3.28116 6.55366C1.63159 6.70889 0.168511 5.49749 0.0132888 3.84792C-0.141937 2.19835 1.06946 0.735278 2.71903 0.580055L3.00009 3.56686L3.28116 6.55366ZM53.1861 109.252C51.5356 109.107 50.3151 107.652 50.4599 106.001L52.8208 79.1047C52.9657 77.4542 54.4211 76.2337 56.0717 76.3785C57.7222 76.5234 58.9427 77.9789 58.7978 79.6294L56.6993 103.537L80.6073 105.636C82.2579 105.781 83.4784 107.236 83.3335 108.887C83.1887 110.537 81.7332 111.758 80.0827 111.613L53.1861 109.252ZM3.00009 3.56686L2.71903 0.580055C44.1957 -3.32293 70.0983 12.8809 79.0529 36.2273C87.9283 59.3673 79.6025 88.2458 55.3761 108.562L53.4484 106.264L51.5207 103.965C74.1945 84.9504 81.2313 58.6613 73.4508 38.376C65.7495 18.2972 42.9778 2.81818 3.28116 6.55366L3.00009 3.56686Z" fill="#4A4A4A"/>
</svg>
