<svg width="56" height="120" viewBox="0 0 56 120" fill="none" xmlns="http://www.w3.org/2000/svg">
<path d="M30.8289 0.518887C32.1991 -0.412639 34.065 -0.0570172 34.9965 1.31318C35.928 2.68337 35.5724 4.54928 34.2022 5.4808L32.5155 2.99984L30.8289 0.518887ZM54.888 99.4881C55.8508 100.836 55.5382 102.71 54.1897 103.673L32.2162 119.362C30.8678 120.325 28.9942 120.013 28.0314 118.664C27.0686 117.316 27.3812 115.442 28.7296 114.479L48.2617 100.533L34.3154 81.0011C33.3526 79.6526 33.6652 77.7791 35.0136 76.8163C36.362 75.8535 38.2356 76.1661 39.1984 77.5145L54.888 99.4881ZM32.5155 2.99984L34.2022 5.4808C8.76817 22.772 2.54226 44.0809 7.65819 61.672C12.8422 79.4972 29.9077 94.4293 52.9402 98.2722L52.4465 101.231L51.9527 104.19C26.992 100.026 7.81732 83.7048 1.89689 63.3475C-4.09164 42.756 3.71363 18.953 30.8289 0.518887L32.5155 2.99984Z" fill="#4A4A4A"/>
</svg>
