<svg width="41" height="109" viewBox="0 0 41 109" fill="none" xmlns="http://www.w3.org/2000/svg">
<path d="M3.55632 5.21062C2.33567 4.09029 2.25433 2.19253 3.37467 0.971871C4.49501 -0.248791 6.39276 -0.330118 7.61342 0.79022L5.58487 3.00042L3.55632 5.21062ZM40.5449 96.6054C41.0391 98.1869 40.1576 99.8695 38.5761 100.364L12.8047 108.416C11.2233 108.91 9.5407 108.028 9.04658 106.447C8.55247 104.865 9.43394 103.183 11.0154 102.689L33.9233 95.5313L26.7659 72.6234C26.2718 71.0419 27.1533 69.3594 28.7347 68.8652C30.3162 68.3711 31.9988 69.2526 32.4929 70.8341L40.5449 96.6054ZM5.58487 3.00042L7.61342 0.79022C21.1767 13.2387 25.3223 23.3618 23.9057 32.459C23.2178 36.8765 21.2537 40.7255 18.9828 44.1352C16.7545 47.4811 14.0102 50.703 11.8014 53.5381C7.11051 59.5591 4.62532 64.1116 6.8111 69.5505C7.98757 72.478 10.6356 76 15.814 80.2468C20.9753 84.4796 28.4732 89.2894 39.0736 94.8427L37.6815 97.5001L36.2893 100.158C25.499 94.5047 17.6082 89.4779 12.0093 84.8862C6.42754 80.3086 2.94391 76.0182 1.24385 71.7879C-2.32341 62.9113 2.45881 55.7671 7.06834 49.8506C9.50977 46.7169 11.924 43.9099 13.989 40.8093C16.0115 37.7725 17.4755 34.7574 17.9772 31.5358C18.9397 25.3549 16.5101 17.0997 3.55632 5.21062L5.58487 3.00042Z" fill="#4A4A4A"/>
</svg>
