<svg width="74" height="113" viewBox="0 0 74 113" fill="none" xmlns="http://www.w3.org/2000/svg">
<path d="M0.363313 109.347C0.519913 110.996 1.984 112.206 3.63343 112.05C5.28287 111.893 6.49305 110.429 6.33645 108.78L3.34988 109.063L0.363313 109.347ZM46.6344 0.186647C45.0807 -0.388643 43.3547 0.404572 42.7794 1.95834L33.4045 27.2785C32.8292 28.8323 33.6224 30.5582 35.1762 31.1335C36.73 31.7088 38.4559 30.9156 39.0312 29.3618L47.3645 6.85501L69.8713 15.1883C71.4251 15.7635 73.151 14.9703 73.7263 13.4166C74.3016 11.8628 73.5084 10.1368 71.9546 9.56155L46.6344 0.186647ZM3.34988 109.063L6.33645 108.78C4.76384 92.2158 8.86252 83.2375 14.7616 77.4573C20.9609 71.3829 29.3524 68.4925 37.843 64.6703C45.9988 60.9988 54.2836 56.3892 57.356 46.4929C60.3559 36.8303 58.0963 23.0221 48.3187 1.74722L45.5928 3L42.8669 4.25278C52.5489 25.3198 53.9205 37.3227 51.6258 44.7139C49.4037 51.8714 43.468 55.5581 35.38 59.1992C27.6267 62.6895 17.751 66.1278 10.5623 73.1717C3.07335 80.5098 -1.33685 91.4395 0.363313 109.347L3.34988 109.063Z" fill="#4A4A4A"/>
</svg>
