<svg width="56" height="120" viewBox="0 0 56 120" fill="none" xmlns="http://www.w3.org/2000/svg">
<path d="M30.8289 119.403C32.1991 120.335 34.065 119.979 34.9965 118.609C35.928 117.239 35.5724 115.373 34.2022 114.441L32.5155 116.922L30.8289 119.403ZM54.888 20.4338C55.8508 19.0854 55.5382 17.2118 54.1897 16.249L32.2162 0.559469C30.8678 -0.40332 28.9942 -0.090714 28.0314 1.25769C27.0686 2.6061 27.3812 4.4797 28.7296 5.44249L48.2617 19.3888L34.3154 38.9208C33.3526 40.2692 33.6652 42.1428 35.0136 43.1056C36.362 44.0684 38.2356 43.7558 39.1984 42.4074L54.888 20.4338ZM32.5155 116.922L34.2022 114.441C8.76817 97.1499 2.54226 75.8409 7.65819 58.2499C12.8422 40.4247 29.9077 25.4926 52.9402 21.6496L52.4465 18.6905L51.9527 15.7314C26.992 19.8961 7.81732 36.2171 1.89689 56.5744C-4.09164 77.1658 3.71363 100.969 30.8289 119.403L32.5155 116.922Z" fill="#4A4A4A"/>
</svg>
