<svg width="90" height="134" viewBox="0 0 90 134" fill="none" xmlns="http://www.w3.org/2000/svg">
<path d="M86.2624 127.896C87.9192 127.896 89.2624 129.239 89.2624 130.896C89.2624 132.552 87.9193 133.896 86.2624 133.896L86.2624 130.896L86.2624 127.896ZM35.2031 2.37204C36.8536 2.51691 38.0741 3.97236 37.9293 5.62287L35.5684 32.5195C35.4235 34.17 33.968 35.3905 32.3175 35.2456C30.667 35.1008 29.4465 33.6453 29.5913 31.9948L31.6899 8.08674L7.78184 5.98816C6.13133 5.84329 4.91078 4.38784 5.05565 2.73733C5.20053 1.08683 6.65597 -0.133731 8.30648 0.0111455L35.2031 2.37204ZM86.2624 130.896L86.2624 133.896C60.1175 133.896 40.482 128.427 26.554 119.323C12.5768 110.187 4.53286 97.503 1.45944 83.5215C-4.64797 55.7379 8.89938 23.2839 33.013 3.06186L34.9407 5.36055L36.8685 7.65923C14.082 26.7683 1.79078 57.0821 7.31953 82.2334C10.0642 94.7194 17.2071 106.045 29.8369 114.301C42.516 122.589 60.9079 127.896 86.2624 127.896L86.2624 130.896Z" fill="#4A4A4A"/>
</svg>
